<svg width="144" height="40" viewBox="0 0 144 40" fill="none" xmlns="http://www.w3.org/2000/svg">
<path d="M34.1422 5.85781C30.3647 2.08031 25.3422 0 20 0C14.6578 0 9.63531 2.08031 5.85781 5.85781C2.08031 9.63531 0 14.6578 0 20C0 25.3422 2.08039 30.3646 5.85781 34.1422C9.63523 37.9198 14.6578 40 20 40C25.3422 40 30.3647 37.9197 34.1422 34.1422C37.9197 30.3647 40 25.3422 40 20C40 14.6578 37.9196 9.63539 34.1422 5.85781Z" fill="#33CC95"/>
<g clip-path="url(#clip0_2_2)">
<path d="M20.5714 8V33.1429" stroke="white" stroke-width="2" stroke-linecap="round" stroke-linejoin="round"/>
<path d="M26.2857 12.5714H17.7143C16.6534 12.5714 15.636 12.9929 14.8859 13.743C14.1357 14.4931 13.7143 15.5106 13.7143 16.5714C13.7143 17.6323 14.1357 18.6497 14.8859 19.3999C15.636 20.15 16.6534 20.5714 17.7143 20.5714H23.4286C24.4894 20.5714 25.5068 20.9929 26.257 21.743C27.0071 22.4931 27.4286 23.5106 27.4286 24.5714C27.4286 25.6323 27.0071 26.6497 26.257 27.3999C25.5068 28.15 24.4894 28.5714 23.4286 28.5714H13.7143" stroke="white" stroke-width="2" stroke-linecap="round" stroke-linejoin="round"/>
</g>
<path d="M48.472 18.13V23.856C48.472 24.388 48.5933 24.7987 48.836 25.088C49.088 25.3773 49.466 25.522 49.97 25.522C50.474 25.522 50.852 25.3773 51.104 25.088C51.3653 24.7893 51.496 24.3787 51.496 23.856V18.13H54.24V23.856C54.24 24.7613 54.0487 25.536 53.666 26.18C53.2833 26.8147 52.7607 27.2953 52.098 27.622C51.4447 27.9393 50.7167 28.098 49.914 28.098C49.1113 28.098 48.3927 27.9393 47.758 27.622C47.1327 27.2953 46.638 26.8147 46.274 26.18C45.9193 25.5453 45.742 24.7707 45.742 23.856V18.13H48.472ZM59.4748 28.098C58.3268 28.098 57.3841 27.8273 56.6468 27.286C55.9095 26.7353 55.5128 25.9513 55.4568 24.934H58.3828C58.4108 25.2793 58.5135 25.5313 58.6908 25.69C58.8681 25.8487 59.0968 25.928 59.3768 25.928C59.6288 25.928 59.8341 25.8673 59.9928 25.746C60.1608 25.6153 60.2448 25.438 60.2448 25.214C60.2448 24.9247 60.1095 24.7007 59.8388 24.542C59.5681 24.3833 59.1295 24.206 58.5228 24.01C57.8788 23.7953 57.3561 23.59 56.9548 23.394C56.5628 23.1887 56.2175 22.8947 55.9188 22.512C55.6295 22.12 55.4848 21.6113 55.4848 20.986C55.4848 20.3513 55.6435 19.81 55.9608 19.362C56.2781 18.9047 56.7168 18.5593 57.2768 18.326C57.8368 18.0927 58.4715 17.976 59.1808 17.976C60.3288 17.976 61.2435 18.2467 61.9248 18.788C62.6155 19.32 62.9841 20.0713 63.0308 21.042H60.0488C60.0395 20.7433 59.9461 20.5193 59.7688 20.37C59.6008 20.2207 59.3815 20.146 59.1108 20.146C58.9055 20.146 58.7375 20.2067 58.6068 20.328C58.4761 20.4493 58.4108 20.622 58.4108 20.846C58.4108 21.0327 58.4808 21.196 58.6208 21.336C58.7701 21.4667 58.9521 21.5833 59.1668 21.686C59.3815 21.7793 59.6988 21.9007 60.1188 22.05C60.7441 22.2647 61.2575 22.4793 61.6588 22.694C62.0695 22.8993 62.4195 23.1933 62.7088 23.576C63.0075 23.9493 63.1568 24.4253 63.1568 25.004C63.1568 25.592 63.0075 26.1193 62.7088 26.586C62.4195 27.0527 61.9948 27.4213 61.4348 27.692C60.8841 27.9627 60.2308 28.098 59.4748 28.098ZM64.0964 23.044C64.0964 22.0733 64.2971 21.21 64.6984 20.454C65.1091 19.6887 65.6878 19.096 66.4344 18.676C67.1811 18.2467 68.0398 18.032 69.0104 18.032C70.2424 18.032 71.2784 18.3633 72.1184 19.026C72.9584 19.6793 73.4998 20.5707 73.7424 21.7H70.7884C70.6111 21.3267 70.3638 21.042 70.0464 20.846C69.7384 20.65 69.3791 20.552 68.9684 20.552C68.3338 20.552 67.8251 20.7807 67.4424 21.238C67.0691 21.686 66.8824 22.288 66.8824 23.044C66.8824 23.8093 67.0691 24.4207 67.4424 24.878C67.8251 25.326 68.3338 25.55 68.9684 25.55C69.3791 25.55 69.7384 25.452 70.0464 25.256C70.3638 25.06 70.6111 24.7753 70.7884 24.402H73.7424C73.4998 25.5313 72.9584 26.4273 72.1184 27.09C71.2784 27.7433 70.2424 28.07 69.0104 28.07C68.0398 28.07 67.1811 27.86 66.4344 27.44C65.6878 27.0107 65.1091 26.418 64.6984 25.662C64.2971 24.8967 64.0964 24.024 64.0964 23.044ZM78.7658 28.098C77.6178 28.098 76.6751 27.8273 75.9378 27.286C75.2005 26.7353 74.8038 25.9513 74.7478 24.934H77.6738C77.7018 25.2793 77.8045 25.5313 77.9818 25.69C78.1591 25.8487 78.3878 25.928 78.6678 25.928C78.9198 25.928 79.1251 25.8673 79.2838 25.746C79.4518 25.6153 79.5358 25.438 79.5358 25.214C79.5358 24.9247 79.4005 24.7007 79.1298 24.542C78.8591 24.3833 78.4205 24.206 77.8138 24.01C77.1698 23.7953 76.6471 23.59 76.2458 23.394C75.8538 23.1887 75.5085 22.8947 75.2098 22.512C74.9205 22.12 74.7758 21.6113 74.7758 20.986C74.7758 20.3513 74.9345 19.81 75.2518 19.362C75.5691 18.9047 76.0078 18.5593 76.5678 18.326C77.1278 18.0927 77.7625 17.976 78.4718 17.976C79.6198 17.976 80.5345 18.2467 81.2158 18.788C81.9065 19.32 82.2751 20.0713 82.3218 21.042H79.3398C79.3305 20.7433 79.2371 20.5193 79.0598 20.37C78.8918 20.2207 78.6725 20.146 78.4018 20.146C78.1965 20.146 78.0285 20.2067 77.8978 20.328C77.7671 20.4493 77.7018 20.622 77.7018 20.846C77.7018 21.0327 77.7718 21.196 77.9118 21.336C78.0611 21.4667 78.2431 21.5833 78.4578 21.686C78.6725 21.7793 78.9898 21.9007 79.4098 22.05C80.0351 22.2647 80.5485 22.4793 80.9498 22.694C81.3605 22.8993 81.7105 23.1933 81.9998 23.576C82.2985 23.9493 82.4478 24.4253 82.4478 25.004C82.4478 25.592 82.2985 26.1193 81.9998 26.586C81.7105 27.0527 81.2858 27.4213 80.7258 27.692C80.1751 27.9627 79.5218 28.098 78.7658 28.098ZM93.0951 18.13V20.314H89.1471V22.05H92.0591V24.136H89.1471V28H86.4031V18.13H93.0951ZM95.6368 19.418C95.1515 19.418 94.7595 19.2873 94.4608 19.026C94.1715 18.7553 94.0268 18.4193 94.0268 18.018C94.0268 17.6073 94.1715 17.2667 94.4608 16.996C94.7595 16.7253 95.1515 16.59 95.6368 16.59C96.1128 16.59 96.4955 16.7253 96.7848 16.996C97.0835 17.2667 97.2328 17.6073 97.2328 18.018C97.2328 18.4193 97.0835 18.7553 96.7848 19.026C96.4955 19.2873 96.1128 19.418 95.6368 19.418ZM96.9948 20.146V28H94.2508V20.146H96.9948ZM103.695 20.076C104.601 20.076 105.319 20.3793 105.851 20.986C106.383 21.5833 106.649 22.3953 106.649 23.422V28H103.905V23.786C103.905 23.338 103.789 22.988 103.555 22.736C103.322 22.4747 103.009 22.344 102.617 22.344C102.207 22.344 101.885 22.4747 101.651 22.736C101.418 22.988 101.301 23.338 101.301 23.786V28H98.5574V20.146H101.301V21.266C101.544 20.9113 101.871 20.6267 102.281 20.412C102.692 20.188 103.163 20.076 103.695 20.076ZM107.707 24.066C107.707 23.254 107.852 22.5447 108.141 21.938C108.44 21.3313 108.841 20.8647 109.345 20.538C109.858 20.2113 110.428 20.048 111.053 20.048C111.594 20.048 112.061 20.1553 112.453 20.37C112.845 20.5847 113.148 20.874 113.363 21.238V20.146H116.107V28H113.363V26.908C113.148 27.272 112.84 27.5613 112.439 27.776C112.047 27.9907 111.585 28.098 111.053 28.098C110.428 28.098 109.858 27.9347 109.345 27.608C108.841 27.2813 108.44 26.8147 108.141 26.208C107.852 25.592 107.707 24.878 107.707 24.066ZM113.363 24.066C113.363 23.562 113.223 23.1653 112.943 22.876C112.672 22.5867 112.336 22.442 111.935 22.442C111.524 22.442 111.184 22.5867 110.913 22.876C110.642 23.156 110.507 23.5527 110.507 24.066C110.507 24.57 110.642 24.9713 110.913 25.27C111.184 25.5593 111.524 25.704 111.935 25.704C112.336 25.704 112.672 25.5593 112.943 25.27C113.223 24.9807 113.363 24.5793 113.363 24.066ZM122.809 20.076C123.714 20.076 124.433 20.3793 124.965 20.986C125.497 21.5833 125.763 22.3953 125.763 23.422V28H123.019V23.786C123.019 23.338 122.902 22.988 122.669 22.736C122.435 22.4747 122.123 22.344 121.731 22.344C121.32 22.344 120.998 22.4747 120.765 22.736C120.531 22.988 120.415 23.338 120.415 23.786V28H117.671V20.146H120.415V21.266C120.657 20.9113 120.984 20.6267 121.395 20.412C121.805 20.188 122.277 20.076 122.809 20.076ZM126.82 24.066C126.82 23.254 126.988 22.5447 127.324 21.938C127.66 21.3313 128.127 20.8647 128.724 20.538C129.331 20.2113 130.022 20.048 130.796 20.048C131.795 20.048 132.635 20.3233 133.316 20.874C133.998 21.4153 134.436 22.176 134.632 23.156H131.72C131.552 22.6427 131.226 22.386 130.74 22.386C130.395 22.386 130.12 22.5307 129.914 22.82C129.718 23.1 129.62 23.5153 129.62 24.066C129.62 24.6167 129.718 25.0367 129.914 25.326C130.12 25.6153 130.395 25.76 130.74 25.76C131.235 25.76 131.562 25.5033 131.72 24.99H134.632C134.436 25.9607 133.998 26.7213 133.316 27.272C132.635 27.8227 131.795 28.098 130.796 28.098C130.022 28.098 129.331 27.9347 128.724 27.608C128.127 27.2813 127.66 26.8147 127.324 26.208C126.988 25.6013 126.82 24.8873 126.82 24.066ZM143.276 23.982C143.276 24.1967 143.262 24.4113 143.234 24.626H138.04C138.068 25.0553 138.185 25.3773 138.39 25.592C138.605 25.7973 138.876 25.9 139.202 25.9C139.66 25.9 139.986 25.6947 140.182 25.284H143.108C142.987 25.8253 142.749 26.3107 142.394 26.74C142.049 27.16 141.61 27.4913 141.078 27.734C140.546 27.9767 139.958 28.098 139.314 28.098C138.54 28.098 137.849 27.9347 137.242 27.608C136.645 27.2813 136.174 26.8147 135.828 26.208C135.492 25.6013 135.324 24.8873 135.324 24.066C135.324 23.2447 135.492 22.5353 135.828 21.938C136.164 21.3313 136.631 20.8647 137.228 20.538C137.835 20.2113 138.53 20.048 139.314 20.048C140.089 20.048 140.775 20.2067 141.372 20.524C141.97 20.8413 142.436 21.2987 142.772 21.896C143.108 22.484 143.276 23.1793 143.276 23.982ZM140.476 23.296C140.476 22.96 140.364 22.6987 140.14 22.512C139.916 22.316 139.636 22.218 139.3 22.218C138.964 22.218 138.689 22.3113 138.474 22.498C138.26 22.6753 138.12 22.9413 138.054 23.296H140.476Z" fill="white"/>
<defs>
<clipPath id="clip0_2_2">
<rect width="27.4286" height="27.4286" fill="white" transform="translate(6.85714 6.85714)"/>
</clipPath>
</defs>
</svg>
